<?xml version="1.0" encoding="utf-8"?>
<!-- Generator: Adobe Illustrator 23.0.3, SVG Export Plug-In . SVG Version: 6.00 Build 0)  -->
<svg version="1.1" id="svg2" xmlns="http://www.w3.org/2000/svg" xmlns:xlink="http://www.w3.org/1999/xlink" x="0px" y="0px"
	 viewBox="0 0 232.5 215.8" style="enable-background:new 0 0 232.5 215.8;" xml:space="preserve">
<style type="text/css">
	.st0{fill-rule:evenodd;clip-rule:evenodd;fill:#282828;}
	.st1{fill-rule:evenodd;clip-rule:evenodd;fill:#E42F44;}
</style>
<path id="path4" class="st0" d="M214.7,130.3v46.5c0,2.7,0.3,4.4,0.9,5.1c0.6,0.7,1.8,1.2,3.7,1.3v1.4h-20.4v-1.4
	c1.7-0.1,2.9-0.5,3.8-1.5c0.5-0.6,0.8-2.3,0.8-4.9V138c0-2.7-0.3-4.4-0.9-5.1c-0.6-0.8-1.8-1.2-3.6-1.3v-1.4L214.7,130.3
	L214.7,130.3z"/>
<path id="path12" class="st0" d="M29.1,147.1v5c2-2.3,3.9-3.8,5.7-4.7c1.7-0.9,3.7-1.3,5.7-1.3c2.4,0,4.4,0.6,6,1.7
	c1.6,1.1,2.9,2.8,3.8,5.1c2.1-2.4,4.2-4.1,6.1-5.2c2-1.1,4-1.6,6.2-1.6c2.6,0,4.7,0.6,6.2,1.8c1.5,1.2,2.6,2.7,3.2,4.5
	c0.6,1.8,0.9,4.7,0.9,8.7v15.3c0,2.9,0.3,4.7,0.8,5.3c0.5,0.7,1.6,1.1,3.2,1.4v1.4H57.6v-1.4c1.5-0.1,2.6-0.7,3.4-1.8
	c0.5-0.7,0.7-2.4,0.7-5v-16.1c0-3.3-0.1-5.5-0.4-6.4c-0.3-0.9-0.7-1.6-1.3-2c-0.6-0.4-1.2-0.7-2-0.7c-1.1,0-2.3,0.4-3.5,1.3
	c-1.2,0.8-2.4,2.1-3.6,3.8v20.1c0,2.7,0.2,4.4,0.7,5.1c0.6,1,1.8,1.5,3.5,1.6v1.4H35.8v-1.4c1-0.1,1.8-0.3,2.4-0.8
	c0.6-0.5,1-1,1.2-1.7c0.2-0.7,0.3-2.1,0.3-4.3v-16.1c0-3.4-0.1-5.5-0.4-6.4c-0.3-0.9-0.7-1.5-1.3-2c-0.6-0.5-1.3-0.7-2-0.7
	c-1.1,0-2,0.3-2.9,0.8c-1.3,0.8-2.6,2.3-4,4.3v20.1c0,2.6,0.3,4.4,0.8,5.2c0.5,0.8,1.6,1.3,3.2,1.5v1.4H13.9v-1.4
	c1.6-0.2,2.7-0.7,3.3-1.5c0.5-0.6,0.7-2.3,0.7-5.2v-21.2c0-2.9-0.3-4.6-0.8-5.3c-0.5-0.7-1.6-1.2-3.2-1.4v-1.4L29.1,147.1
	L29.1,147.1z"/>
<path id="path16" class="st0" d="M131.5,21.7v24.5h15.7v7h-15.7v41.1c0,3.9,0.2,6.3,0.5,7.5c0.3,1.1,1,2,1.9,2.7
	c0.9,0.7,1.7,1,2.5,1c3.1,0,6-2.3,8.7-7l2.1,1.6c-3.8,9.1-10.1,13.6-18.7,13.6c-4.2,0-7.8-1.2-10.7-3.5c-2.9-2.4-4.8-5-5.6-7.9
	c-0.5-1.6-0.7-6-0.7-13.1v-36h-8.7v-2.5c6-4.2,11.1-8.7,15.3-13.3c4.2-4.7,7.9-9.9,11-15.6H131.5L131.5,21.7z"/>
<path id="path18" class="st0" d="M83,21.7v24.5h15.7v7H83v41.1c0,3.9,0.2,6.3,0.5,7.5c0.3,1.1,1,2,1.9,2.7c0.9,0.7,1.7,1,2.5,1
	c3.1,0,6-2.3,8.7-7l2.1,1.6c-3.8,9.1-10.1,13.6-18.7,13.6c-4.2,0-7.8-1.2-10.7-3.5c-2.9-2.4-4.8-5-5.6-7.9c-0.5-1.6-0.7-6-0.7-13.1
	v-36h-8.7v-2.5c6-4.2,11.1-8.7,15.3-13.3c4.2-4.7,7.9-9.9,11-15.6H83L83,21.7z"/>
<path id="path20" class="st1" d="M42,46.2V99c0,4.7,0.6,7.8,1.7,9.1c1.1,1.3,3.3,2.1,6.5,2.3v2.5H13.9v-2.5c3-0.1,5.2-0.9,6.7-2.6
	c1-1.1,1.5-4,1.5-8.8V60.1c0-4.8-0.6-7.8-1.7-9.1c-1.1-1.3-3.3-2.1-6.5-2.3v-2.5H42z"/>
<path id="path22" class="st1" d="M32,14c3.1,0,5.7,1.1,7.8,3.2c2.1,2.2,3.2,4.8,3.2,7.8c0,3.1-1.1,5.6-3.2,7.8
	C37.7,35,35.1,36,32,36c-3.1,0-5.6-1.1-7.8-3.2C22.1,30.7,21,28.1,21,25c0-3,1.1-5.6,3.2-7.8C26.4,15.1,29,14,32,14z"/>
<path class="st0" d="M217.1,102c-1.3,1.7-2.6,2.6-3.8,2.6c-0.6,0-1.1-0.2-1.6-0.6c-0.5-0.4-0.8-1-1.1-1.7c-0.2-0.8-0.4-2.7-0.4-5.7
	V70.7c0-7.1-0.3-11.7-1-13.7c-1.1-3.1-3.5-6-7.2-8.7c-3.7-2.7-8.7-4-15-4c-5.2,0-10.3,0.8-15.1,2.5c-4.8,1.7-8.6,4.1-11.3,7.1
	c-2.7,3.1-4.1,6.4-4.1,9.8c0,2.4,1,4.5,3,6.3c2,1.8,4.5,2.7,7.5,2.7c2.8,0,5.1-0.8,6.8-2.5c1.7-1.6,2.6-3.6,2.6-5.9
	c0-1.9-0.9-3.9-2.7-5.9c-1.3-1.5-2-2.7-2-3.7c0-1.1,0.6-2.1,1.8-3c2-1.4,4.5-2.1,7.7-2.1c1.9,0,3.6,0.5,5.1,1.5
	c1.5,1,2.6,2.1,3.1,3.4c0.6,1.3,0.8,4.5,0.8,9.5v6.7c-14.7,6.7-24.2,12.1-28.6,16.2c-4.4,4.1-6.6,8.6-6.6,13.7
	c0,3.7,1.3,6.9,3.8,9.4c2.5,2.5,5.7,3.7,9.5,3.7c6.4,0,13.7-3.6,21.9-10.8v0c0.5,3.6,1.8,6.3,3.9,8.1c2.1,1.8,5.1,2.7,8.9,2.7
	c3.2,0,6.1-0.8,8.6-2.4c2.6-1.6,5-4.2,7.4-7.7L217.1,102z M190.4,97.7L190.4,97.7c-3.1,2.7-5.9,4.1-8.3,4.1c-2.1,0-3.8-0.6-5-1.9
	c-1.6-1.7-2.4-3.6-2.4-5.8c0-2.6,0.9-5.2,2.8-7.7c2.8-3.8,7.1-7.4,12.8-10.8V97.7z"/>
<path class="st0" d="M195.3,164.5c-0.2-6.1-1.7-10.7-4.5-13.8c-2.8-3.1-6.1-4.6-9.8-4.6c-4.5,0-8.5,1.8-11.9,5.5
	c-3.4,3.7-5.1,8.6-5.1,14.9c0,5.1,1.1,9.3,3.4,12.8c2.9,4.3,7.1,6.4,12.6,6.4c3.2,0,6.1-0.9,8.5-2.6c2.4-1.7,4.7-4.6,6.7-8.7
	l-1.4-0.9c-1.5,2.3-2.9,3.9-4.2,4.8c-1.3,0.9-2.8,1.3-4.4,1.3c-2.6,0-4.8-1.1-6.6-3.3c-2.4-2.9-3.7-6.8-4-11.7L195.3,164.5
	L195.3,164.5z M174.6,161.8v-1.4c0-4.1,0.8-7.4,2.4-9.8c0.9-1.4,2-2,3.4-2c0.9,0,1.7,0.2,2.3,0.7c1,0.8,1.7,2,2.2,3.6
	c0.5,1.6,0.7,4.5,0.7,8.8H174.6z"/>
<path class="st0" d="M155.4,154.7c-1.3-2.8-3.1-4.9-5.3-6.4c-2.3-1.5-4.7-2.3-7.2-2.3c-3.7,0-7.2,1.6-10.3,4.9v-20.7h-15.5v1.4
	c1.4,0.1,2.3,0.3,2.9,0.6c0.6,0.4,1,0.9,1.3,1.7c0.2,0.5,0.3,1.9,0.3,4.1v47.6h1.4l6.2-4c1.5,1.4,3.1,2.4,4.6,3.1
	c1.6,0.6,3.4,0.9,5.4,0.9c3.5,0,6.6-0.9,9.3-2.6c2.7-1.7,4.9-4.3,6.5-7.6c1.6-3.3,2.4-7,2.4-11.1
	C157.4,160.7,156.7,157.5,155.4,154.7z M144.5,177.1c-0.6,2.3-1.5,3.8-2.4,4.6c-1,0.8-2.1,1.2-3.5,1.2c-1.6,0-2.9-0.5-3.9-1.5
	c-1-1-1.7-2.2-1.9-3.8c-0.2-0.9-0.2-3.1-0.2-6.5v-16.6c2.1-2.6,4.3-3.9,6.6-3.9c1.8,0,3.2,0.8,4.2,2.3c1.4,2.1,2.2,6.1,2.2,11.8
	C145.5,170.7,145.2,174.8,144.5,177.1z"/>
<path class="st0" d="M113.5,164.5c-0.2-6.1-1.7-10.7-4.5-13.8c-2.8-3.1-6.1-4.6-9.8-4.6c-4.5,0-8.5,1.8-11.9,5.5
	c-3.4,3.7-5.1,8.6-5.1,14.9c0,5.1,1.1,9.3,3.4,12.8c2.9,4.3,7.1,6.4,12.6,6.4c3.2,0,6.1-0.9,8.5-2.6c2.4-1.7,4.7-4.6,6.7-8.7
	l-1.4-0.9c-1.5,2.3-2.9,3.9-4.2,4.8c-1.3,0.9-2.8,1.3-4.4,1.3c-2.6,0-4.8-1.1-6.6-3.3c-2.4-2.9-3.7-6.8-4-11.7L113.5,164.5
	L113.5,164.5z M92.8,161.8v-1.4c0-4.1,0.8-7.4,2.4-9.8c0.9-1.4,2-2,3.4-2c0.9,0,1.7,0.2,2.3,0.7c1,0.8,1.7,2,2.2,3.6
	c0.5,1.6,0.7,4.5,0.7,8.8H92.8z"/>
</svg>
